inDegrees=yes
name=ik_S44_A06_T02
DataType=double
version=3
OpenSimVersion=4.3-2021-08-27-4bc7ad9
endheader
time	pelvis_tilt	pelvis_list	pelvis_rotation	pelvis_tx	pelvis_ty	pelvis_tz	hip_flexion_r	hip_adduction_r	hip_rotation_r	knee_angle_r	knee_angle_r_beta	ankle_angle_r	subtalar_angle_r	mtp_angle_r	hip_flexion_l	hip_adduction_l	hip_rotation_l	knee_angle_l	knee_angle_l_beta	ankle_angle_l	subtalar_angle_l	mtp_angle_l	lumbar_extension	lumbar_bending	lumbar_rotation	arm_flex_r	arm_add_r	arm_rot_r	elbow_flex_r	pro_sup_r	wrist_flex_r	wrist_dev_r	arm_flex_l	arm_add_l	arm_rot_l	elbow_flex_l	pro_sup_l	wrist_flex_l	wrist_dev_l
0	0	0	0	0	0.9399999999999999	0	0	0	0	0	0	0	0	0	0	0	0	0	0	0	0	0	0	0	0	0	0	0	0	89.99999999963507	0	0	0	0	0	0	89.99999999869995	0	0
0.02	-7.896874435396392	-1.742548336082758	27.00468866942782	0	0.9399999999999999	0	2.677475265717243	-1.258673744104797	-0.9017376125941404	4.153213014547463	0.07248724164053237	0	0	0	2.677475265717243	-1.258673744104797	-0.9017376125941404	4.153213014547463	0.07248724164053237	0	0	0	-3.028185939758096	-3.306377399297126	7.981602801964538	31.3414502772667	2.202029559700958	3.740561358550966	39.99863681916637	129.0461506408156	0	0	35.6003581067297	2.891230466293008	-2.182101578365088	36.03602856353692	132.3410463491586	0	0
0.04	-7.315336626870381	-3.346369065401455	25.30653465234912	0	0.9399999999999999	0	40.68705436040698	-10.46819803597028	-10.28137058563478	56.77178759146984	0.9908546157140101	0	0	0	40.68705436040698	-10.46819803597028	-10.28137058563478	56.77178759146984	0.9908546157140101	0	0	0	-2.78132138806835	-1.68818869010186	9.783402513002342	31.29280382205819	2.15426264455559	3.75037614522945	40.10746031926026	129.0393292384353	0	0	35.55341734110045	2.849552892464652	-2.176764664219029	36.10023070222526	132.2546139162251	0	0
0.06	-7.338273336427481	-3.344954161857821	25.28313824041859	0	0.9399999999999999	0	40.69184534128627	-10.46634365999648	-10.28066672536612	56.77047534282255	0.9908317126545101	0	0	0	40.69184534128627	-10.46634365999648	-10.28066672536612	56.77047534282255	0.9908317126545101	0	0	0	-2.805850394218312	-1.675415283675006	9.77361128197462	31.31559597719612	2.146896318426618	3.730395326396416	40.13751677241351	129.0426347918548	0	0	35.57667878618944	2.871537806818844	-2.229933064067797	36.1160928677217	132.2056014712987	0	0
0.08	-7.365520008725813	-3.338202465012102	25.27085905602104	0	0.9399999999999999	0	40.69844558963995	-10.46362836342611	-10.27965968422978	56.76869271889914	0.9908005999977217	0	0	0	40.69844558963995	-10.46362836342611	-10.27965968422978	56.76869271889914	0.9908005999977217	0	0	0	-2.833453147158893	-1.6555249371776	9.76280285903549	31.360961642391	2.115527918264407	3.741936372429303	40.17908098903322	129.0374188586	0	-1.355567705673185e-35	35.55563725191548	2.842855323601913	-2.244965630489699	36.1559635711987	132.1337340037867	0	-1.355567705673185e-35
0.1	-7.379668231692134	-3.335050832672323	25.24613913200774	0	0.9399999999999999	0	40.70095325771853	-10.46247425025885	-10.27925343255582	56.76802679623529	0.990788977454674	0	0	0	40.70095325771853	-10.46247425025885	-10.27925343255582	56.76802679623529	0.990788977454674	0	0	0	-2.847581814295996	-1.645187472588541	9.749709159378744	31.38712126512923	2.122772225209083	3.760991366515294	40.17188226117963	129.0429198837964	0	0	35.58896484731686	2.827560055446595	-2.281703104675797	36.15106411971503	132.1266667158953	0	0
0.12	-7.392621090202748	-3.309629136807061	25.20498230335227	0	0.9399999999999999	0	40.70452168528527	-10.46119989998023	-10.27875353481593	56.76703187807674	0.9907716128570194	0	0	0	40.70452168528527	-10.46119989998023	-10.27875353481593	56.76703187807674	0.9907716128570194	0	0	0	-2.852724402746239	-1.614115949762429	9.726524020684332	31.39136454215876	2.115902628624505	3.799019334847869	40.17756209763887	129.0298959372408	0	0	35.53098678600206	2.800893226815616	-2.402380116890285	36.17284362479852	132.1613189593147	0	0
0.14	-7.391284328677767	-3.306732906449732	25.19129580222503	0	0.9399999999999999	0	40.70373309155071	-10.46096035840987	-10.27875337145594	56.76731641913565	0.9907765790353544	0	0	0	40.70373309155071	-10.46096035840987	-10.27875337145594	56.76731641913565	0.9907765790353544	0	0	0	-2.849662167246982	-1.611963627120768	9.722837118236146	31.41008045029819	2.129130853411947	3.809948121654319	40.16982369441553	129.0364393957033	0	0	35.52719788742071	2.809291280668403	-2.41191762228894	36.16532306926857	132.1835486494986	0	0
0.16	-7.397830749249229	-3.302717035666678	25.1741665116345	0	0.9399999999999999	0	40.70926267346214	-10.45939208213934	-10.2780654158226	56.76572390750378	0.9907487844640021	0	0	0	40.70926267346214	-10.45939208213934	-10.2780654158226	56.76572390750378	0.9907487844640021	0	0	0	-2.858767813304746	-1.604083542403589	9.717183850917591	31.42152732363368	2.139603731854661	3.882344519320186	40.18036541135893	129.0196134341757	0	0	35.53389631686276	2.826589430799836	-2.366268489513055	36.17998800101289	132.1637203963058	0	0
0.18	-7.412943404662078	-3.29786918635762	25.15826152132356	0	0.9399999999999999	0	40.71500962353956	-10.45735030743524	-10.27725937476426	56.7641274700057	0.9907209213733582	0	0	0	40.71500962353956	-10.45735030743524	-10.27725937476426	56.7641274700057	0.9907209213733582	0	0	0	-2.875466936539273	-1.591572918069919	9.709297012508545	31.4523094857013	2.139914833303982	3.93171370260773	40.17760703192333	128.9869323996473	0	0	35.52991580579824	2.819425639997903	-2.323460884716916	36.19612356570339	132.1258069013844	0	0
0.2	-7.412853967970501	-3.299439651731626	25.14456678516893	0	0.9399999999999999	0	40.71860319541898	-10.45584030256014	-10.27670599956697	56.76315913416877	0.9907040207247386	0	0	0	40.71860319541898	-10.45584030256014	-10.27670599956697	56.76315913416877	0.9907040207247386	0	0	0	-2.879178479817694	-1.591928707311909	9.702197169216262	31.45063809815579	2.137542716251034	3.933428424170043	40.17435780656803	128.9582451686116	0	-2.694034605743505e-36	35.53380592863562	2.822319766307879	-2.290729369228263	36.17961671273923	132.1143499932422	0	-2.694034605743505e-36
0.22	-7.413261022449484	-3.295525757982922	25.13835537116156	0	0.9399999999999999	0	40.72055727279618	-10.4554942711596	-10.27650966031624	56.76256540939838	0.9906936582726448	0	0	0	40.72055727279618	-10.4554942711596	-10.27650966031624	56.76256540939838	0.9906936582726448	0	0	0	-2.879536897780973	-1.587905571138851	9.703085973180821	31.44854656303005	2.143695186894012	3.952586395746362	40.16318958147238	128.9691020941385	0	0	35.53720085557079	2.844374611017764	-2.277136159528625	36.16979606008125	132.1329171903111	0	0
0.24	-7.413548124885144	-3.296823734753914	25.14256644611322	0	0.9399999999999999	0	40.72136663081803	-10.45480121084189	-10.27631173496881	56.76238803006201	0.9906905624192002	0	0	0	40.72136663081803	-10.45480121084189	-10.27631173496881	56.76238803006201	0.9906905624192002	0	0	0	-2.88093957826647	-1.588714175233848	9.701054943362006	31.45787006637362	2.120622011344275	3.9646144333265	40.15338474811492	128.9996168383734	0	0	35.55341547120475	2.854293782767555	-2.296391554518453	36.16193908476799	132.1568019160755	0	0
0.26	-7.409709258444758	-3.296383884565574	25.15534786454538	0	0.9399999999999999	0	40.72273425474793	-10.45398143587322	-10.27605057999692	56.76204802484681	0.9906846282087208	0	0	0	40.72273425474793	-10.45398143587322	-10.27605057999692	56.76204802484681	0.9906846282087208	0	0	0	-2.878335736995491	-1.589596114110508	9.698622614747036	31.47666220618835	2.138088620069651	4.001907895513058	40.14419296558449	129.0030972870438	0	0	35.56066170617981	2.876828169646813	-2.323828088967618	36.16043458098823	132.1854306735878	0	0
0.28	-7.40577325568275	-3.295090725875075	25.16220807175777	0	0.9399999999999999	0	40.72291038740828	-10.45368893638345	-10.27598040583876	56.76202280552459	0.990684188048513	0	0	0	40.72291038740828	-10.45368893638345	-10.27598040583876	56.76202280552459	0.990684188048513	0	0	0	-2.874794911216403	-1.589362525051911	9.688290358317527	31.48560670957592	2.144832218613838	4.072092697339584	40.10187335769604	128.9882331194344	0	0	35.59062114737456	2.887662312028173	-2.359062692204051	36.12539419836266	132.2390347591839	0	0
